<svg width="658" height="128" viewBox="0 0 658 128" fill="none" xmlns="http://www.w3.org/2000/svg">
<path d="M193.528 76.56C193.528 80.688 192.44 84.336 190.264 87.504C188.12 90.672 185.032 93.152 181 94.944C176.968 96.736 172.12 97.632 166.456 97.632C160.184 97.632 154.92 96.72 150.664 94.896C146.44 93.04 142.936 90.752 140.152 88.032L148.12 79.2C150.584 81.344 153.304 83.008 156.28 84.192C159.256 85.344 162.52 85.92 166.072 85.92C168.28 85.92 170.216 85.6 171.88 84.96C173.544 84.32 174.84 83.392 175.768 82.176C176.696 80.96 177.16 79.488 177.16 77.76C177.16 76.128 176.792 74.752 176.056 73.632C175.32 72.512 174.072 71.504 172.312 70.608C170.584 69.712 168.168 68.8 165.064 67.872C159.88 66.272 155.704 64.512 152.536 62.592C149.4 60.672 147.112 58.448 145.672 55.92C144.264 53.392 143.56 50.448 143.56 47.088C143.56 43.024 144.68 39.552 146.92 36.672C149.192 33.792 152.232 31.6 156.04 30.096C159.848 28.56 164.04 27.792 168.616 27.792C173.768 27.792 178.312 28.544 182.248 30.048C186.184 31.52 189.592 33.632 192.472 36.384L185.032 44.928C182.792 43.04 180.376 41.648 177.784 40.752C175.192 39.824 172.552 39.36 169.864 39.36C167.88 39.36 166.136 39.616 164.632 40.128C163.128 40.608 161.96 41.328 161.128 42.288C160.296 43.248 159.88 44.448 159.88 45.888C159.88 47.296 160.28 48.48 161.08 49.44C161.88 50.4 163.272 51.312 165.256 52.176C167.24 53.008 169.992 53.984 173.512 55.104C177.704 56.384 181.288 57.92 184.264 59.712C187.272 61.472 189.56 63.696 191.128 66.384C192.728 69.072 193.528 72.464 193.528 76.56ZM249.171 93.024C247.187 94.304 244.787 95.392 241.971 96.288C239.155 97.184 235.987 97.632 232.467 97.632C225.811 97.632 220.867 95.936 217.635 92.544C214.403 89.12 212.787 84.48 212.787 78.624V55.488H202.083V45.024H212.787V33.984L227.955 32.16V45.024H244.371L242.883 55.488H227.955V78.624C227.955 81.152 228.531 82.96 229.683 84.048C230.835 85.136 232.675 85.68 235.203 85.68C236.995 85.68 238.627 85.472 240.099 85.056C241.603 84.608 242.947 84.048 244.131 83.376L249.171 93.024ZM276.013 45.024V79.92C276.013 82.384 276.461 84.08 277.357 85.008C278.285 85.936 279.565 86.4 281.197 86.4C282.765 86.4 284.333 85.904 285.901 84.912C287.469 83.92 288.781 82.576 289.837 80.88V45.024H305.005V96H291.757L291.085 90.048C289.357 92.544 287.085 94.432 284.269 95.712C281.453 96.992 278.509 97.632 275.437 97.632C270.509 97.632 266.845 96.208 264.445 93.36C262.045 90.48 260.845 86.624 260.845 81.792V45.024H276.013ZM347.4 23.184L362.568 24.768V96H349.128L348.36 90.384C346.952 92.368 345.08 94.08 342.744 95.52C340.408 96.928 337.576 97.632 334.248 97.632C330.024 97.632 326.52 96.496 323.736 94.224C320.984 91.952 318.92 88.784 317.544 84.72C316.2 80.624 315.528 75.84 315.528 70.368C315.528 65.12 316.344 60.464 317.976 56.4C319.608 52.336 321.944 49.152 324.984 46.848C328.024 44.512 331.64 43.344 335.832 43.344C338.104 43.344 340.216 43.744 342.168 44.544C344.12 45.344 345.864 46.512 347.4 48.048V23.184ZM339.911 54.432C337.288 54.432 335.176 55.68 333.576 58.176C331.976 60.64 331.176 64.736 331.176 70.464C331.176 74.656 331.512 77.92 332.184 80.256C332.856 82.56 333.784 84.176 334.968 85.104C336.152 86.032 337.512 86.496 339.048 86.496C340.744 86.496 342.28 85.968 343.656 84.912C345.064 83.856 346.312 82.416 347.4 80.592V58.608C346.344 57.296 345.224 56.272 344.04 55.536C342.856 54.8 341.48 54.432 339.911 54.432ZM404.962 23.184L420.13 24.768V96H406.69L405.922 90.384C404.514 92.368 402.642 94.08 400.306 95.52C397.97 96.928 395.138 97.632 391.81 97.632C387.586 97.632 384.082 96.496 381.298 94.224C378.546 91.952 376.482 88.784 375.106 84.72C373.762 80.624 373.09 75.84 373.09 70.368C373.09 65.12 373.906 60.464 375.538 56.4C377.17 52.336 379.506 49.152 382.546 46.848C385.586 44.512 389.202 43.344 393.394 43.344C395.666 43.344 397.778 43.744 399.73 44.544C401.682 45.344 403.426 46.512 404.962 48.048V23.184ZM397.474 54.432C394.85 54.432 392.738 55.68 391.138 58.176C389.538 60.64 388.738 64.736 388.738 70.464C388.738 74.656 389.074 77.92 389.746 80.256C390.418 82.56 391.346 84.176 392.53 85.104C393.714 86.032 395.074 86.496 396.61 86.496C398.306 86.496 399.842 85.968 401.218 84.912C402.626 83.856 403.874 82.416 404.962 80.592V58.608C403.906 57.296 402.786 56.272 401.602 55.536C400.418 54.8 399.042 54.432 397.474 54.432ZM481.725 45.024L464.733 96C463.229 100.512 461.229 104.288 458.733 107.328C456.269 110.4 453.181 112.768 449.469 114.432C445.789 116.096 441.357 117.072 436.173 117.36L434.445 106.656C437.805 106.24 440.509 105.616 442.557 104.784C444.637 103.952 446.301 102.816 447.549 101.376C448.829 99.968 449.933 98.176 450.861 96H445.677L429.501 45.024H445.533L455.421 86.304L466.173 45.024H481.725ZM502.087 24.336V52.368C504.071 49.712 506.503 47.728 509.383 46.416C512.295 45.072 515.239 44.4 518.215 44.4C523.143 44.4 526.743 45.712 529.015 48.336C531.287 50.96 532.423 54.608 532.423 59.28V96H524.359V59.472C524.359 56.432 523.655 54.224 522.247 52.848C520.839 51.44 518.631 50.736 515.623 50.736C513.703 50.736 511.879 51.168 510.151 52.032C508.423 52.896 506.871 53.968 505.495 55.248C504.119 56.528 502.983 57.84 502.087 59.184V96H494.023V25.2L502.087 24.336ZM559.65 45.456V81.264C559.65 84.592 560.338 86.992 561.714 88.464C563.09 89.936 565.234 90.672 568.146 90.672C570.93 90.672 573.554 89.888 576.018 88.32C578.514 86.72 580.45 84.832 581.826 82.656V45.456H589.89V96H583.026L582.354 89.184C580.37 91.744 577.922 93.712 575.01 95.088C572.098 96.432 569.154 97.104 566.177 97.104C561.282 97.104 557.618 95.808 555.186 93.216C552.786 90.592 551.586 86.928 551.586 82.224V45.456H559.65ZM617.212 52.032C619.068 49.6 621.196 47.728 623.596 46.416C626.028 45.072 628.7 44.4 631.612 44.4C636.124 44.4 639.772 45.488 642.556 47.664C645.34 49.84 647.372 52.912 648.652 56.88C649.932 60.816 650.572 65.424 650.572 70.704C650.572 75.792 649.804 80.336 648.268 84.336C646.732 88.304 644.476 91.424 641.5 93.696C638.556 95.968 634.908 97.104 630.556 97.104C624.7 97.104 620.108 94.992 616.78 90.768L616.204 96H609.148V25.104L617.212 24.096V52.032ZM628.636 90.576C632.86 90.576 636.108 88.944 638.38 85.68C640.652 82.416 641.788 77.408 641.788 70.656C641.788 66.24 641.34 62.576 640.444 59.664C639.548 56.72 638.204 54.528 636.412 53.088C634.652 51.616 632.476 50.88 629.884 50.88C627.068 50.88 624.588 51.728 622.444 53.424C620.332 55.088 618.588 56.944 617.212 58.992V84.048C618.524 86.032 620.172 87.616 622.156 88.8C624.172 89.984 626.332 90.576 628.636 90.576Z" fill="white"/>
<circle cx="64" cy="64" r="64" fill="#3B88F5"/>
<ellipse cx="60.7677" cy="64" rx="60.7677" ry="64" fill="#28ABFA"/>
<path d="M92.9596 55.3398C99.6263 59.1888 99.6263 68.8113 92.9596 72.6603L57.0202 93.4099C50.3535 97.2589 42.0202 92.4476 42.0202 84.7496L42.0202 43.2504C42.0202 35.5524 50.3535 30.7411 57.0202 34.5901L92.9596 55.3398Z" fill="#C4F3FF"/>
<path d="M88.2911 55.5711C94.4501 59.5028 94.4501 68.4973 88.2911 72.4289L57.2394 92.2515C50.5828 96.5009 41.8586 91.7199 41.8586 83.8225L41.8586 44.1775C41.8586 36.2802 50.5828 31.4991 57.2394 35.7485L88.2911 55.5711Z" fill="white"/>
</svg>
